PathFileType	4	(X/Y/Z)	C:/Users/opensim2020/Desktop/walking_exp_matlab/subject03_walking17_run.trc																																																																																																																																																				
DataRate	CameraRate	NumFrames	NumMarkers	Units	OrigDataRate	OrigDataStartFrame	OrigNumFrames																																																																																																																																																
100	100	4	50	mm	100	204	132																																																																																																																																																
Frame#	Time	RTOE			LTHI			RWRB			LTIB			RELB			RUPA			RKNE			RTHI			RASI			RFRM			RWRA			RSHO			STRN			LFRM			CLAV			LWRB			LASI			RFHD			LFIN			LSHO			RTIB			LWRA			RBHD			LHEE			RANK			RHEE			C7			RFIN			LBHD			LUPA			LTOE			RBAK			LELB			LFHD			RPSI			LPSI			T10			LKNE			LANK			*39			*40			*41			*42			*43			*44			*45			*46			*47			*48			*49		
		X1	Y1	Z1	X2	Y2	Z2	X3	Y3	Z3	X4	Y4	Z4	X5	Y5	Z5	X6	Y6	Z6	X7	Y7	Z7	X8	Y8	Z8	X9	Y9	Z9	X10	Y10	Z10	X11	Y11	Z11	X12	Y12	Z12	X13	Y13	Z13	X14	Y14	Z14	X15	Y15	Z15	X16	Y16	Z16	X17	Y17	Z17	X18	Y18	Z18	X19	Y19	Z19	X20	Y20	Z20	X21	Y21	Z21	X22	Y22	Z22	X23	Y23	Z23	X24	Y24	Z24	X25	Y25	Z25	X26	Y26	Z26	X27	Y27	Z27	X28	Y28	Z28	X29	Y29	Z29	X30	Y30	Z30	X31	Y31	Z31	X32	Y32	Z32	X33	Y33	Z33	X34	Y34	Z34	X35	Y35	Z35	X36	Y36	Z36	X37	Y37	Z37	X38	Y38	Z38	X39	Y39	Z39	X40	Y40	Z40	X41	Y41	Z41	X42	Y42	Z42	X43	Y43	Z43	X44	Y44	Z44	X45	Y45	Z45	X46	Y46	Z46	X47	Y47	Z47	X48	Y48	Z48	X49	Y49	Z49	X50	Y50	Z50
																																																																																																																																																							
1	0	-2209.33154	30.40202	203.06036	-1830.5741	596.23621	52.62559	-1725.56299	881.61066	396.28641	-1870.95764	325.05692	62.99587	-1897.79431	999.76093	478.61804	-1899.18311	1092.95178	462.39374	-2008.88904	381.1813	316.13696	-2007.86218	560.45245	363.78079	-1901.14563	844.68176	338.97705	-1799.16077	934.52954	434.42929	-1720.78455	928.33777	371.75912	-1834.10315	1291.39246	365.78476	-1773.85547	1070.55078	213.11266	-1920.34021	959.84583	-51.80321	-1779.1676	1245.21179	211.31389	-1881.46252	857.91553	-30.01947	-1878.04895	843.60919	107.22051	-1794.11108	1537.82861	293.87299	-1913.98816	774.61078	-18.10067	-1824.66479	1299.32861	58.65205	-2149.7146	250.87627	290.38016	-1898.22131	862.60071	26.16214	-1900.32104	1465.83069	268.76892	-2096.646	188.76627	95.6797	-2312.17236	120.74696	219.09338	-2363.97144	126.14797	164.03397	-1900.86267	1333.42004	199.21107	-1658.22632	879.08728	372.47937	-1878.14417	1471.47534	140.40434	-1918.44836	1161.20483	-58.39592	-1948.28955	75.71798	83.94405	-1976.37988	1180.29993	301.12854	-1966.34045	1062.89734	-93.12216	-1766.14673	1543.72363	163.786	-2042.51489	917.49329	285.83704	-2034.84558	904.05402	136.0939	-1996.47668	1044.22656	205.06642	-1728.06018	451.69266	89.26486	-2029.63477	193.67598	64.88455	NaN	NaN	NaN	NaN	NaN	NaN	-1871.20447	1577.47534	198.72363	NaN	NaN	NaN	NaN	NaN	NaN	NaN	NaN	NaN	NaN	NaN	NaN	NaN	NaN	NaN	NaN	NaN	NaN	NaN	NaN	NaN	NaN	NaN	NaN
2	0.01	-2207.66626	30.44306	203.12595	-1787.70593	609.75763	53.40207	-1683.02429	904.1991	386.96609	-1813.59985	325.54065	62.20884	-1859.07153	1007.82086	478.6561	-1861.19116	1099.73755	462.42194	-1995.9054	387.5051	317.4296	-1983.69446	565.86493	363.74237	-1865.21484	848.67761	338.78534	-1758.89966	951.14587	429.23111	-1681.80493	952.11462	364.75894	-1798.74756	1298.31604	364.73889	-1740.00464	1076.97632	210.6393	-1899.31506	976.05261	-57.17996	-1746.61694	1251.6991	209.44171	-1861.4491	873.17651	-36.67032	-1842.51343	851.44067	107.53785	-1762.43738	1543.96863	293.19766	-1893.17212	789.59735	-21.33922	-1795.82251	1307.18799	58.71699	-2140.05103	259.58035	292.0257	-1876.35571	878.65375	19.93578	-1868.50488	1471.77136	268.09109	-2022.93921	165.9037	91.95164	-2303.99341	131.08394	221.09634	-2353.55225	138.37965	165.93658	-1869.10864	1339.21533	200.28987	-1615.73193	907.33234	361.93619	-1846.43018	1477.62085	139.76897	-1892.75317	1174.31213	-60.0116	-1864.91687	68.06113	86.34823	-1941.33008	1185.73401	304.11035	-1944.38293	1078.98706	-96.36803	-1734.48315	1550.00317	163.24643	-2006.78821	921.54578	287.14725	-1999.71936	910.69275	137.19984	-1962.40833	1049.01941	208.55586	-1681.99451	468.51239	90.63689	-1956.86609	176.60028	63.24669	NaN	NaN	NaN	NaN	NaN	NaN	-1839.651	1583.53259	198.1776	NaN	NaN	NaN	NaN	NaN	NaN	NaN	NaN	NaN	NaN	NaN	NaN	NaN	NaN	NaN	NaN	NaN	NaN	NaN	NaN	NaN	NaN	NaN	NaN
3	0.02	-2205.67236	30.69315	203.40387	-1747.01465	622.77704	54.2736	-1641.94702	926.4212	379.23026	-1755.61035	325.78308	60.64542	-1820.56958	1016.45947	478.52451	-1823.1272	1107.05347	462.24847	-1981.93567	395.54321	318.58594	-1958.65686	572.50049	363.8468	-1828.30627	852.87708	338.66818	-1719.30103	967.51477	424.4574	-1644.32092	975.13391	358.14267	-1763.37195	1305.73462	363.59409	-1705.67566	1084.12915	207.99559	-1877.4259	992.42316	-61.41114	-1713.86926	1258.78027	207.74852	-1840.11218	888.9151	-41.99858	-1806.34399	859.83466	108.07906	-1730.58813	1550.42566	292.60434	-1870.44519	804.9566	-23.67203	-1766.51624	1315.2478	58.7867	-2129.19336	269.84109	294.27469	-1853.39868	895.16003	14.92552	-1836.52979	1478.21521	267.4549	-1948.03662	143.25526	90.93201	-2292.31665	141.12062	223.72665	-2340.65552	151.04626	168.77853	-1837.06946	1345.271	201.22731	-1575.80579	934.80896	351.83694	-1814.573	1484.25916	139.14613	-1866.35059	1187.46375	-61.16435	-1780.80383	62.08986	91.25578	-1906.08289	1191.93042	306.58926	-1921.80359	1095.30981	-98.75459	-1702.90283	1556.7616	162.63281	-1970.08081	925.92316	288.45465	-1963.66553	917.74396	138.36284	-1927.93689	1054.22827	212.0885	-1640.95618	482.55252	91.25996	-1884.3623	159.55405	63.67423	NaN	NaN	NaN	NaN	NaN	NaN	-1807.86279	1590.14026	197.74838	NaN	NaN	NaN	NaN	NaN	NaN	NaN	NaN	NaN	NaN	NaN	NaN	NaN	NaN	NaN	NaN	NaN	NaN	NaN	NaN	NaN	NaN	NaN	NaN
4	0.03	-2203.26465	30.93836	204.17998	-1707.77234	634.74884	54.93796	-1602.54187	948.01398	371.50592	-1700.4679	323.98831	61.10194	-1782.13721	1025.51477	478.45126	-1785.46265	1114.81616	462.15036	-1966.96826	404.7706	319.31506	-1932.62195	580.06354	364.01859	-1790.65686	857.43103	338.38315	-1680.32922	983.70313	420.61426	-1608.25549	997.02118	351.60168	-1728.00562	1313.34375	362.27786	-1671.43945	1091.37158	205.73256	-1854.64172	1008.84912	-64.25009	-1680.99084	1266.10522	206.12711	-1817.52686	904.7464	-45.98642	-1769.21375	868.83203	108.71739	-1698.58398	1556.96753	292.07333	-1846.30518	820.5094	-25.15201	-1736.6217	1323.17285	58.90013	-2116.89258	281.35602	296.9021	-1829.15247	911.50647	11.10125	-1804.47144	1484.89734	266.86502	-1870.93481	121.87348	92.32181	-2279.79175	151.87288	227.52737	-2324.86572	163.66423	172.31747	-1804.76672	1351.49609	202.01654	-1537.72607	961.18591	342.5654	-1782.60107	1491.15649	138.59074	-1839.39063	1200.73511	-61.65616	-1696.84253	57.46048	96.66463	-1870.68811	1198.5769	308.64459	-1898.51587	1111.53259	-100.03868	-1671.09546	1563.58813	162.1234	-1932.39673	930.48425	289.785	-1926.82959	924.95447	139.77892	-1893.04773	1059.67615	215.59727	-1601.39307	494.4938	91.76801	-1810.08496	142.31963	64.69173	NaN	NaN	NaN	NaN	NaN	NaN	-1775.80103	1596.93335	197.42641	NaN	NaN	NaN	NaN	NaN	NaN	NaN	NaN	NaN	NaN	NaN	NaN	NaN	NaN	NaN	NaN	NaN	NaN	NaN	NaN	NaN	NaN	NaN	NaN
